<svg width="32" height="32" viewBox="0 0 32 32" xmlns="http://www.w3.org/2000/svg">
	<defs>
		<linearGradient id="starGradient" x1="0%" y1="0%" x2="100%" y2="100%">
			<stop offset="0%" style="stop-color:#fbbf24;stop-opacity:1" />
			<stop offset="100%" style="stop-color:#f59e0b;stop-opacity:1" />
		</linearGradient>
		<linearGradient id="linkGradient" x1="0%" y1="0%" x2="100%" y2="100%">
			<stop offset="0%" style="stop-color:#3b82f6;stop-opacity:1" />
			<stop offset="100%" style="stop-color:#1d4ed8;stop-opacity:1" />
		</linearGradient>
		<filter id="shadow" x="-20%" y="-20%" width="140%" height="140%">
			<feDropShadow dx="1" dy="1" stdDeviation="1" flood-color="#00000020" />
		</filter>
	</defs>
	<!-- Document background (white sheet) -->
	<rect x="2" y="2" width="28" height="28" rx="3" fill="#ffffff" stroke="#e5e7eb" stroke-width="1" filter="url(#shadow)" />
	<!-- Text lines suggesting document content -->
	<g stroke="#9ca3af" stroke-width="1" stroke-linecap="round">
		<!-- Header line (shorter) -->
		<line x1="5" y1="8" x2="18" y2="8" />
		<!-- Content lines -->
		<line x1="5" y1="12" x2="27" y2="12" />
		<line x1="5" y1="15" x2="24" y2="15" />
		<line x1="5" y1="18" x2="26" y2="18" />
		<line x1="5" y1="21" x2="22" y2="21" />
		<line x1="5" y1="24" x2="25" y2="24" />
		<line x1="5" y1="27" x2="20" y2="27" />
	</g>
	<!-- Star icon in upper left quarter (bigger) -->
	<g transform="translate(16, 16) scale(8, 8) translate(-0.6, -0.6)">
		<path d="M0 -0.5 L0.15 -0.15 L0.5 -0.15 L0.25 0.1 L0.4 0.45 L0 0.25 L-0.4 0.45 L-0.25 0.1 L-0.5 -0.15 L-0.15 -0.15 Z" fill="url(#starGradient)" stroke="#f59e0b" stroke-width="0.06" />
	</g>
	<!-- Chain links along line from (-0.5, -1) to (1, 0.5) -->
	<g transform="translate(16, 16) scale(8, 8)">
		<!-- DEBUG: Draw the reference lines y = -x and y = 1 - x -->
		<g stroke="red" stroke-width="0.02" opacity="0.7">
			<!-- Line y = -x: goes from (-1, 1) to (1, -1) -->
			<line x1="-1" y1="1" x2="1" y2="-1" />
			<!-- Line y = 1 - x: goes from (-1, 2) to (1, 0), clipped to viewport -->
			<line x1="-1" y1="1" x2="1" y2="0" />
		</g>
		<!-- Links positioned below the red diagonal, longer with thick strokes -->
		<!-- First link at position (-0.6, 0.2) - longer and thicker -->
		<g transform="translate(-0.6, 0.2) rotate(-45)">
			<ellipse cx="0" cy="0" rx="0.5" ry="0.2" fill="none" stroke="url(#linkGradient)" stroke-width="0.12" />
			<ellipse cx="0" cy="0" rx="0.4" ry="0.15" fill="url(#linkGradient)" opacity="0.3" />
		</g>
		<!-- Second link at position (0.0, 0.7) - longer and thicker -->
		<g transform="translate(0.0, 0.7) rotate(-45)">
			<ellipse cx="0" cy="0" rx="0.5" ry="0.2" fill="none" stroke="url(#linkGradient)" stroke-width="0.12" />
			<ellipse cx="0" cy="0" rx="0.4" ry="0.15" fill="url(#linkGradient)" opacity="0.3" />
		</g>
	</g>
</svg>
