<svg width="32" height="32" viewBox="0 0 32 32" xmlns="http://www.w3.org/2000/svg">
  <!-- Background with Logseq dark theme -->
  <rect width="32" height="32" rx="4" fill="#1F2937" stroke="#374151" stroke-width="0.5"/>
  
  <!-- Icon (star/asterisk) -->
  <g transform="translate(6, 8)">
    <!-- Star shape -->
    <g fill="#60A5FA">
      <circle cx="0" cy="0" r="1" />
      <rect x="-0.4" y="-3" width="0.8" height="6" rx="0.4"/>
      <rect x="-3" y="-0.4" width="6" height="0.8" rx="0.4"/>
      <rect x="-2.1" y="-2.1" width="4.2" height="0.8" rx="0.4" transform="rotate(45)"/>
      <rect x="-2.1" y="-2.1" width="4.2" height="0.8" rx="0.4" transform="rotate(-45)"/>
    </g>
  </g>
  
  <!-- Title text lines -->
  <g transform="translate(4, 16)">
    <!-- First line (shorter) -->
    <rect x="0" y="0" width="8" height="1.2" fill="#9CA3AF" rx="0.6"/>
    <!-- Second line (longer) -->
    <rect x="0" y="3" width="12" height="1.2" fill="#9CA3AF" rx="0.6"/>
  </g>
  
  <!-- Arrow link -->
  <g transform="translate(18, 18)">
    <!-- Arrow shaft -->
    <rect x="0" y="1.5" width="8" height="1" fill="#10B981" rx="0.5"/>
    <!-- Arrow head -->
    <path d="M8 0 L12 2.5 L8 5 L8 3.5 L8 1.5 Z" fill="#10B981"/>
  </g>
</svg>