<svg width="32" height="32" viewBox="0 0 32 32" xmlns="http://www.w3.org/2000/svg">
  <!-- Background -->
  <rect width="32" height="32" rx="4" fill="#1F2937" stroke="#374151" stroke-width="0.5"/>
  
  <!-- Browser/card container -->
  <rect x="3" y="6" width="26" height="20" rx="2" fill="#374151" stroke="#4B5563" stroke-width="1"/>
  
  <!-- Top bar (like browser address bar) -->
  <rect x="3" y="6" width="26" height="5" rx="2" fill="#4B5563"/>
  <rect x="3" y="9" width="26" height="2" fill="#374151"/>
  
  <!-- Favicon/icon (left side) -->
  <circle cx="8" cy="16" r="2.5" fill="#60A5FA"/>
  <rect x="7" y="15" width="2" height="2" fill="#1F2937" rx="0.3"/>
  
  <!-- Title text (center) -->
  <rect x="13" y="15" width="8" height="1.5" fill="#E5E7EB" rx="0.75"/>
  <rect x="13" y="17.5" width="6" height="1" fill="#9CA3AF" rx="0.5"/>
  
  <!-- Link/external indicator (right side) -->
  <g transform="translate(23, 14)">
    <!-- Link chain -->
    <rect x="0" y="1.5" width="2" height="1" fill="#10B981" rx="0.5"/>
    <rect x="2.5" y="1.5" width="2" height="1" fill="#10B981" rx="0.5"/>
    <circle cx="2" cy="2" r="0.8" fill="none" stroke="#10B981" stroke-width="0.6"/>
    <circle cx="3" cy="2" r="0.8" fill="none" stroke="#10B981" stroke-width="0.6"/>
    
    <!-- External arrow -->
    <path d="M1 4 L3 4 L3 3" 
          fill="none" 
          stroke="#10B981" 
          stroke-width="0.8" 
          stroke-linecap="round" 
          stroke-linejoin="round"/>
  </g>
</svg>